<svg width="44" height="44" viewBox="0 0 44 44" fill="none" xmlns="http://www.w3.org/2000/svg">
<circle cx="22" cy="22" r="22" fill="#F9F9F9"/>
<path d="M26.75 13.56V12C26.75 11.59 26.41 11.25 26 11.25C25.59 11.25 25.25 11.59 25.25 12V13.5H18.75V12C18.75 11.59 18.41 11.25 18 11.25C17.59 11.25 17.25 11.59 17.25 12V13.56C14.55 13.81 13.24 15.42 13.04 17.81C13.02 18.1 13.26 18.34 13.54 18.34H30.46C30.75 18.34 30.99 18.09 30.96 17.81C30.76 15.42 29.45 13.81 26.75 13.56Z" fill="url(#paint0_linear_408_688)"/>
<path d="M29 25C26.79 25 25 26.79 25 29C25 29.75 25.21 30.46 25.58 31.06C26.27 32.22 27.54 33 29 33C30.46 33 31.73 32.22 32.42 31.06C32.79 30.46 33 29.75 33 29C33 26.79 31.21 25 29 25ZM31.07 28.57L28.94 30.54C28.8 30.67 28.61 30.74 28.43 30.74C28.24 30.74 28.05 30.67 27.9 30.52L26.91 29.53C26.62 29.24 26.62 28.76 26.91 28.47C27.2 28.18 27.68 28.18 27.97 28.47L28.45 28.95L30.05 27.47C30.35 27.19 30.83 27.21 31.11 27.51C31.39 27.81 31.37 28.28 31.07 28.57Z" fill="url(#paint1_linear_408_688)"/>
<path d="M30 19.8401H14C13.45 19.8401 13 20.2901 13 20.8401V27.0001C13 30.0001 14.5 32.0001 18 32.0001H22.93C23.62 32.0001 24.1 31.3301 23.88 30.6801C23.68 30.1001 23.51 29.4601 23.51 29.0001C23.51 25.9701 25.98 23.5001 29.01 23.5001C29.3 23.5001 29.59 23.5201 29.87 23.5701C30.47 23.6601 31.01 23.1901 31.01 22.5901V20.8501C31 20.2901 30.55 19.8401 30 19.8401ZM19.21 28.2101C19.02 28.3901 18.76 28.5001 18.5 28.5001C18.24 28.5001 17.98 28.3901 17.79 28.2101C17.61 28.0201 17.5 27.7601 17.5 27.5001C17.5 27.2401 17.61 26.9801 17.79 26.7901C17.89 26.7001 17.99 26.6301 18.12 26.5801C18.49 26.4201 18.93 26.5101 19.21 26.7901C19.39 26.9801 19.5 27.2401 19.5 27.5001C19.5 27.7601 19.39 28.0201 19.21 28.2101ZM19.21 24.7101C19.16 24.7501 19.11 24.7901 19.06 24.8301C19 24.8701 18.94 24.9001 18.88 24.9201C18.82 24.9501 18.76 24.9701 18.7 24.9801C18.63 24.9901 18.56 25.0001 18.5 25.0001C18.24 25.0001 17.98 24.8901 17.79 24.7101C17.61 24.5201 17.5 24.2601 17.5 24.0001C17.5 23.7401 17.61 23.4801 17.79 23.2901C18.02 23.0601 18.37 22.9501 18.7 23.0201C18.76 23.0301 18.82 23.0501 18.88 23.0801C18.94 23.1001 19 23.1301 19.06 23.1701C19.11 23.2101 19.16 23.2501 19.21 23.2901C19.39 23.4801 19.5 23.7401 19.5 24.0001C19.5 24.2601 19.39 24.5201 19.21 24.7101ZM22.71 24.7101C22.52 24.8901 22.26 25.0001 22 25.0001C21.74 25.0001 21.48 24.8901 21.29 24.7101C21.11 24.5201 21 24.2601 21 24.0001C21 23.7401 21.11 23.4801 21.29 23.2901C21.67 22.9201 22.34 22.9201 22.71 23.2901C22.89 23.4801 23 23.7401 23 24.0001C23 24.2601 22.89 24.5201 22.71 24.7101Z" fill="url(#paint2_linear_408_688)"/>
<defs>
<linearGradient id="paint0_linear_408_688" x1="33.6836" y1="62.7182" x2="-10.869" y2="53.7944" gradientUnits="userSpaceOnUse">
<stop offset="0.25249" stop-color="#59A49E"/>
<stop offset="0.637527" stop-color="#A6D8D2"/>
</linearGradient>
<linearGradient id="paint1_linear_408_688" x1="34.2145" y1="83.0741" x2="13.6603" y2="81.4456" gradientUnits="userSpaceOnUse">
<stop offset="0.25249" stop-color="#59A49E"/>
<stop offset="0.637527" stop-color="#A6D8D2"/>
</linearGradient>
<linearGradient id="paint2_linear_408_688" x1="13.3602" y1="31.7569" x2="34.3916" y2="3.37642" gradientUnits="userSpaceOnUse">
<stop offset="0.138287" stop-color="#FFB23F"/>
<stop offset="0.467052" stop-color="#FAD8A5"/>
</linearGradient>
</defs>
</svg>
