<svg width="110" height="110" viewBox="0 0 110 110" fill="none" xmlns="http://www.w3.org/2000/svg">
<path d="M58.8803 82.129C61.5806 81.841 65.2078 81.3743 67.7895 80.6396M67.7895 80.6396C68.0869 80.5551 66.8208 78.6097 66.7548 78.5249C65.31 76.6645 63.666 75.0502 61.9552 73.4409M67.7895 80.6396C53.1299 78.9458 42.5495 68.4261 42.3087 57.9081C42.2848 56.8656 42.2599 55.731 42.3361 54.599M42.3361 54.599C42.4575 52.7963 42.8352 51.0005 43.8817 49.5947C44.8475 48.2973 46.6522 47.014 48.3311 47.2267C51.4672 47.6242 52.3714 51.7183 50.2418 53.8972C48.3705 55.8121 44.4414 56.2064 42.3361 54.599ZM42.3361 54.599C42.2917 54.5651 42.2481 54.5303 42.2054 54.4946C31.8873 45.88 37.8163 31.2305 47.4968 26.008" stroke="#A6D8D2" stroke-width="1.6749" stroke-miterlimit="1.5" stroke-linecap="round" stroke-linejoin="round"/>
</svg>
